<svg width="640" height="540" viewBox="0 0 640 540" fill="none" xmlns="http://www.w3.org/2000/svg">
<g clip-path="url(#clip0_2212_84)">
<path d="M221.576 165L211.081 175.518C210.234 176.367 208.862 176.367 208.015 175.518L205.539 173.034C204.647 172.14 204.647 170.691 205.539 169.8L210.329 165H221.576Z" fill="#E5E6E7"/>
<path d="M186.242 165L196.737 175.518C197.584 176.367 198.956 176.367 199.803 175.518L202.279 173.034C203.171 172.14 203.171 170.691 202.279 169.8L197.489 165H186.242Z" fill="#E5E6E7"/>
<path d="M221.576 189.234L211.081 178.717C210.234 177.868 208.862 177.868 208.015 178.717L205.539 181.201C204.647 182.095 204.647 183.543 205.539 184.434L210.329 189.233L221.576 189.234Z" fill="#E5E6E7"/>
<path d="M186.242 189.234L196.737 178.717C197.584 177.868 198.956 177.868 199.803 178.717L202.279 181.201C203.171 182.095 203.171 183.543 202.279 184.434L197.489 189.233L186.242 189.234Z" fill="#E5E6E7"/>
<path d="M640 0H0V540H640V0Z" fill="#294292"/>
<path d="M209.61 154L196.881 166.757C195.853 167.787 194.189 167.787 193.162 166.757L190.159 163.745C189.077 162.66 189.077 160.903 190.159 159.822L195.968 154H209.61Z" fill="#E5E6E7"/>
<path d="M166.752 154L179.482 166.757C180.509 167.787 182.173 167.787 183.201 166.757L186.204 163.745C187.286 162.66 187.286 160.903 186.204 159.822L180.394 154H166.752Z" fill="#E5E6E7"/>
<path d="M209.61 183.394L196.881 170.638C195.853 169.608 194.189 169.608 193.162 170.638L190.159 173.65C189.077 174.735 189.077 176.491 190.159 177.572L195.968 183.393L209.61 183.394Z" fill="#E5E6E7"/>
<path d="M166.752 183.394L179.482 170.638C180.509 169.608 182.173 169.608 183.201 170.638L186.204 173.65C187.286 174.735 187.286 176.491 186.204 177.572L180.394 183.393L166.752 183.394Z" fill="#E5E6E7"/>
<path d="M514.054 327.526H349.936L310.9 386.721H235.308C235.308 386.721 273.674 386.744 297.692 352.091L357.932 260.189H522.196C558.43 260.189 573.988 236.615 574 236.596L514.054 327.526ZM366.395 302.827H494.263L507.264 282.049H379.46L366.395 302.827Z" fill="#E5E6E7"/>
<path d="M398.138 222.629C379.395 222.625 363.301 229.119 353.034 245.072L187.257 245.084L177.387 259.629H342.974L298.181 327.897L99.1472 327.821L99.1484 327.819H67C86.8991 327.823 103.077 318.78 114.129 302.715H280.2L293.772 281.902H129.348L167.988 222.627L398.138 222.629Z" fill="#E5E6E7"/>
<path d="M209.619 154L196.799 166.848C195.765 167.885 194.089 167.885 193.054 166.848L190.03 163.814C188.94 162.721 188.94 160.952 190.03 159.864L195.88 154H209.619Z" fill="#F5F5F5"/>
<path d="M166.459 154L179.279 166.848C180.314 167.885 181.99 167.885 183.024 166.848L186.049 163.814C187.138 162.721 187.138 160.952 186.049 159.864L180.198 154H166.459Z" fill="#F5F5F5"/>
<path d="M209.619 183.602L196.799 170.754C195.765 169.717 194.089 169.717 193.054 170.754L190.03 173.788C188.94 174.881 188.94 176.65 190.03 177.738L195.88 183.601H209.619V183.602Z" fill="#F5F5F5"/>
<path d="M166.459 183.602L179.279 170.754C180.314 169.717 181.99 169.717 183.024 170.754L186.049 173.788C187.138 174.881 187.138 176.65 186.049 177.738L180.198 183.601H166.459V183.602Z" fill="#F5F5F5"/>
<path d="M230.064 183.75C214.184 183.75 207.145 179.037 207.145 169.08V168.67C207.145 158.712 214.184 154 230.064 154H231.321C247.411 154 252.691 159.286 252.691 164.818V165.023H241.461V164.818C241.461 161.622 236.978 159.942 231.321 159.942H230.064C221.684 159.942 217.997 162.851 217.997 168.67V169.08C217.997 174.898 221.684 177.808 230.064 177.808H231.321C236.978 177.808 241.461 176.128 241.461 172.932V172.727H252.691V172.932C252.691 178.463 247.411 183.75 231.321 183.75H230.064Z" fill="#F5F5F5"/>
</g>
<defs>
<clipPath id="clip0_2212_84">
<rect width="640" height="540" fill="white"/>
</clipPath>
</defs>
</svg>
