<svg width="640" height="540" viewBox="0 0 640 540" fill="none" xmlns="http://www.w3.org/2000/svg">
<rect width="640" height="540" fill="#294292"/>
<path d="M357.165 336.08L280.273 336L311.488 288.161H327.444L304.411 323.332H349.403L372.391 288.161L388.512 288.165L357.165 336.08Z" fill="#E5E6E7"/>
<path d="M452.353 318.663L441.146 336H364.329L395.768 288.161L411.594 288.232L388.598 323.332H433.59L436.576 318.658H452.353V318.663Z" fill="#E5E6E7"/>
<path d="M346.404 234.989L314.948 282.893L392.093 282.751L423.326 234.989H346.404ZM384.38 270.103H339.283L354.001 247.637H398.927L384.38 270.103Z" fill="#E5E6E7"/>
<path d="M479.078 288.383L447.622 336.286L524.767 336.145L556 288.383H479.078ZM517.054 323.497H471.957L486.675 301.031H531.6L517.054 323.497Z" fill="#E5E6E7"/>
<path d="M337.821 227.967L336.068 230.667H276.094L277.847 227.967H337.821Z" fill="#E5E6E7"/>
<path d="M263.033 234.989L232.093 282.751H248.003L262.721 260.285H307.07L292.352 282.751H308.308L339.422 234.989H263.044H263.033ZM268.239 252.09L273.014 244.762L317.328 244.788L312.612 252.116L268.239 252.09Z" fill="#E5E6E7"/>
<path d="M203.665 315.848H127.455L114.549 335.522H84C84.0011 335.522 98.4126 335.53 107.436 322.476L130.066 288.161H221.721L203.665 315.848ZM138.837 298.226L134.021 305.527H194.605L199.242 298.226H138.837Z" fill="#E5E6E7"/>
<path d="M184.101 203L177.478 209.638C176.943 210.174 176.077 210.174 175.543 209.638L173.98 208.071C173.417 207.506 173.417 206.592 173.98 206.03L177.003 203H184.101Z" fill="#E5E6E7"/>
<path d="M161.801 203L168.425 209.638C168.959 210.174 169.825 210.174 170.36 209.638L171.922 208.071C172.485 207.506 172.485 206.592 171.922 206.03L168.899 203H161.801Z" fill="#E5E6E7"/>
<path d="M184.101 218.296L177.478 211.658C176.943 211.122 176.077 211.122 175.543 211.658L173.98 213.225C173.417 213.79 173.417 214.704 173.98 215.266L177.003 218.295H184.101V218.296Z" fill="#E5E6E7"/>
<path d="M161.801 218.296L168.425 211.658C168.959 211.122 169.825 211.122 170.36 211.658L171.922 213.225C172.485 213.79 172.485 214.704 171.922 215.266L168.899 218.295H161.801V218.296Z" fill="#E5E6E7"/>
<path d="M194.663 218.371C186.457 218.371 182.82 215.936 182.82 210.791V210.58C182.82 205.435 186.457 203 194.663 203H195.312C203.626 203 206.354 205.731 206.354 208.59V208.695H200.551V208.59C200.551 206.938 198.235 206.07 195.312 206.07H194.663C190.333 206.07 188.428 207.573 188.428 210.58V210.791C188.428 213.798 190.333 215.301 194.663 215.301H195.312C198.235 215.301 200.551 214.433 200.551 212.782V212.676H206.354V212.782C206.354 215.64 203.626 218.371 195.312 218.371H194.663Z" fill="#E5E6E7"/>
<path d="M256.556 234.912L249.908 245.099H173.482L169.129 252.089H245.468L224.911 283.22L133.152 283.185L133.153 283.184H118.332C127.506 283.186 134.964 279.036 140.059 271.664H216.621L222.878 262.113H147.076L164.889 234.911L256.556 234.912Z" fill="#E5E6E7"/>
<path d="M228.343 288.439L197.402 336.201H213.312L228.031 313.735H272.38L257.662 336.201H273.617L304.731 288.439H228.354H228.343ZM233.549 305.54L238.324 298.212L282.638 298.239L277.922 305.567L233.549 305.54Z" fill="#E5E6E7"/>
</svg>
